<?xml version="1.0" standalone="no"?>
<!DOCTYPE svg PUBLIC "-//W3C//DTD SVG 20010904//EN"
 "http://www.w3.org/TR/2001/REC-SVG-20010904/DTD/svg10.dtd">
<svg version="1.0" xmlns="http://www.w3.org/2000/svg"
 width="512.000000pt" height="93.000000pt" viewBox="0 0 512.000000 93.000000"
 preserveAspectRatio="xMidYMid meet">
<metadata>
Created by potrace 1.16, written by Peter Selinger 2001-2019
</metadata>
<g transform="translate(0.000000,93.000000) scale(0.100000,-0.100000)"
fill="#000000" stroke="none">
<path d="M3605 838 c-114 -41 -163 -174 -153 -418 9 -201 56 -302 153 -329 51
-14 178 -14 228 0 50 14 101 66 121 126 42 122 40 402 -4 501 -44 99 -102 132
-230 131 -47 0 -98 -5 -115 -11z m155 -163 c11 -23 14 -71 14 -210 0 -207 -8
-240 -59 -240 -48 0 -57 45 -53 260 3 201 10 228 56 223 18 -2 32 -13 42 -33z"/>
<path d="M12 828 c-7 -7 -12 -36 -12 -65 0 -46 3 -53 20 -53 19 0 20 -7 20
-219 0 -186 2 -222 16 -235 12 -12 37 -16 110 -16 l94 0 0 -40 0 -39 -72 34
c-40 19 -80 35 -89 35 -37 0 -68 -71 -55 -125 l6 -25 124 0 c136 0 135 0 137
63 1 27 2 28 6 7 12 -76 -1 -70 144 -70 l131 0 -4 55 c-5 61 -28 95 -63 95
-12 0 -50 -14 -84 -32 -33 -17 -63 -29 -66 -26 -3 2 -8 19 -11 36 l-7 32 101
0 c78 0 104 4 116 16 14 13 16 51 16 263 0 179 -3 250 -12 259 -17 17 -509 17
-526 0 -9 -9 -12 -8 -12 5 0 13 9 17 45 17 38 0 45 3 45 20 0 17 -7 20 -53 20
-29 0 -58 -5 -65 -12z m276 -140 c16 -16 16 -120 0 -136 -7 -7 -39 -12 -75
-12 -72 0 -83 11 -83 80 0 69 11 80 83 80 36 0 68 -5 75 -12z m197 -68 l0 -75
-69 -3 c-49 -2 -72 1 -77 10 -13 20 -10 123 3 136 8 8 36 12 78 10 l65 -3 0
-75z m-197 -132 c16 -16 16 -120 0 -136 -7 -7 -39 -12 -75 -12 -72 0 -83 11
-83 80 0 69 11 80 83 80 36 0 68 -5 75 -12z"/>
<path d="M710 465 l0 -377 193 4 c181 3 194 4 224 26 85 60 106 140 101 376
-3 160 -5 175 -30 228 -19 41 -38 64 -69 85 -42 28 -43 28 -231 31 l-188 4 0
-377z m276 217 c28 -19 34 -56 34 -219 0 -200 -5 -217 -68 -221 l-42 -3 0 225
0 226 33 0 c17 0 37 -4 43 -8z"/>
<path d="M1300 465 l0 -375 230 0 230 0 0 85 0 85 -130 0 -130 0 0 65 0 65
115 0 115 0 0 80 0 80 -115 0 -115 0 0 60 0 60 125 0 125 0 0 85 0 85 -225 0
-225 0 0 -375z"/>
<path d="M1762 818 c2 -13 38 -182 78 -376 l74 -353 130 3 129 3 78 365 c43
201 78 369 79 373 0 4 -48 6 -107 5 l-108 -3 -36 -260 c-21 -143 -37 -255 -38
-250 -1 6 -17 122 -36 260 -19 137 -35 251 -35 252 0 2 -48 3 -106 3 -105 0
-106 0 -102 -22z"/>
<path d="M2430 835 c0 -3 -38 -167 -85 -364 -47 -197 -85 -363 -85 -370 0 -7
33 -11 104 -11 l104 0 9 62 8 63 72 3 71 3 9 -63 8 -63 108 -3 c59 -1 107 1
107 5 0 4 -40 172 -88 373 l-89 365 -126 3 c-70 1 -127 0 -127 -3z"/>
<path d="M2880 465 l0 -375 178 0 c232 1 262 13 314 125 22 47 23 63 23 250 0
199 0 200 -28 257 -50 103 -92 118 -318 118 l-169 0 0 -375z m277 217 c25 -16
33 -69 33 -225 0 -194 -6 -211 -68 -215 l-42 -3 0 225 0 226 33 0 c17 0 37 -4
44 -8z"/>
<path d="M4040 465 l0 -375 100 0 100 0 0 145 0 145 39 0 c22 0 44 -6 51 -15
8 -9 14 -55 17 -113 2 -53 6 -112 9 -129 l5 -33 109 0 c61 0 110 3 110 8 0 4
-7 16 -15 26 -11 14 -15 47 -15 115 0 118 -12 162 -51 196 l-31 25 27 22 c38
30 55 77 55 153 0 76 -16 119 -56 156 -47 42 -84 49 -275 49 l-179 0 0 -375z
m274 215 c18 -6 27 -19 31 -44 13 -64 -15 -106 -71 -106 l-34 0 0 80 c0 78 1
80 24 80 14 0 36 -4 50 -10z"/>
<path d="M4550 833 c0 -3 41 -107 90 -229 l90 -223 0 -145 0 -146 100 0 100 0
0 142 0 142 95 228 c52 125 95 230 95 233 0 3 -49 5 -110 5 l-109 0 -15 -52
c-9 -29 -24 -84 -34 -123 l-19 -70 -16 55 c-9 30 -24 85 -33 123 l-18 67 -108
0 c-59 0 -108 -3 -108 -7z"/>
</g>
</svg>
